<svg xmlns="http://www.w3.org/2000/svg" width="137" height="134" viewBox="0 0 137 134" fill="none"><path fill-rule="evenodd" clip-rule="evenodd" d="M130.82 92.7683C130.82 93.2272 130.345 93.6862 130.345 94.604C116.081 117.551 101.343 132.237 65.2096 133.154C62.3569 133.154 59.9797 132.695 57.6026 132.237H60.9306C61.8815 131.319 63.3078 130.401 64.2587 129.024C68.0622 125.353 111.327 102.865 130.82 92.7683ZM134.148 81.295C133.673 83.1307 133.673 84.5075 133.197 86.3432C133.197 86.8022 132.722 87.2611 132.722 87.2611C124.639 91.8504 110.852 95.9808 107.524 97.8165C84.2271 110.667 79.4727 111.585 55.7008 121.681C51.8973 122.599 47.6184 126.27 43.8148 129.024C43.3394 129.024 43.3394 128.565 42.864 128.565C42.3885 128.106 40.9622 128.106 40.4868 127.647C49.9955 122.599 63.3078 117.092 63.7832 116.633C78.9973 112.961 100.867 97.3576 112.278 93.6861C117.508 90.4736 127.967 84.9664 134.148 81.295ZM135.574 61.5609L136.05 67.9859V69.8216H135.574C135.099 69.8216 134.624 69.8216 134.624 70.2806C119.885 76.2467 100.867 83.1307 88.0306 90.0147C69.0131 100.57 44.2903 108.372 24.3219 117.092C23.371 116.633 21.9447 115.256 21.4692 114.338C30.0271 111.126 36.6833 106.536 44.7657 105.618C64.2587 101.947 81.3745 89.0968 96.1131 83.5896C106.573 79.9182 126.541 66.1502 136.05 62.0198V61.5609H135.574ZM104.196 11.5372C104.671 12.455 106.097 12.455 107.048 13.8318L107.999 14.7497C108.95 15.2086 110.376 15.6676 111.327 17.0444C105.622 22.0926 100.392 26.223 94.6868 30.3534C87.0797 35.8606 78.5219 40.4499 69.0131 46.875C54.7499 57.4305 40.9622 69.3627 46.192 76.2467C52.8482 84.5075 103.245 60.1841 107.999 59.2662C110.852 58.3483 122.738 52.8411 132.722 47.7929C132.722 48.2518 132.722 48.2518 132.722 48.2518C133.673 50.0875 133.673 51.9233 134.624 53.759C134.624 54.2179 135.099 54.2179 135.099 54.6769C117.032 62.9377 85.6534 74.411 71.8657 79.9182C63.3078 83.1307 37.6341 93.6862 28.6008 94.604C24.7973 95.063 22.4201 94.1451 21.9447 92.7683C19.5675 87.72 24.7973 84.5075 25.2727 79.9182C25.7482 74.411 19.092 73.4931 28.1254 65.2323C41.4376 52.8411 82.3253 27.1409 104.196 11.5372ZM87.5552 4.19424C88.5061 4.65317 89.9324 5.1121 91.3587 6.02997C91.8341 6.02997 92.3096 6.4889 93.2604 6.4889C86.6043 11.9961 76.6201 18.4212 75.1938 19.798C55.2254 30.3534 34.7815 45.4982 15.2885 57.4305C8.6324 62.0198 0.549938 67.9859 0.549938 76.2467C0.549938 76.2467 0.549938 76.2467 0.549938 75.7878C0.0744998 71.1984 0.0744998 65.6912 0.549938 61.5609C0.549938 61.1019 0.549938 59.7251 0.549938 59.2662C6.73064 54.2179 17.1903 49.1697 20.5184 47.7929C36.6833 39.0731 49.5201 28.5177 65.2096 20.2569C64.7341 19.798 78.9973 10.1604 87.5552 4.19424ZM78.9973 2.35851C79.4727 2.35851 79.9482 2.3585 80.899 2.81744C60.9306 2.81744 58.5534 12.914 41.4377 20.2569C36.2078 23.0105 16.2394 35.8606 4.35345 43.2035C4.35345 42.7446 4.35345 42.7446 4.82889 42.2857C5.30433 41.3678 5.30432 39.991 5.77976 39.0731C14.3377 19.339 40.4868 0.522774 68.0622 0.981707C71.3903 1.44064 75.6692 1.89957 78.9973 2.35851ZM107.524 26.223C104.671 28.5177 102.294 30.8123 99.9166 32.1891C89.4569 39.991 81.8499 43.6625 71.3903 50.5465C68.5376 52.8411 51.8973 63.3966 54.7499 67.9859C59.5043 76.7056 102.294 54.2179 107.048 51.9233C110.376 49.6286 127.492 45.9571 116.081 45.4982C107.524 45.4982 87.0797 57.4305 74.2429 61.5609C69.0131 63.3966 65.2096 64.7734 63.7832 62.4787C63.3078 60.643 67.1113 58.8073 71.3903 55.1358C80.4236 47.7929 92.3096 40.9089 100.867 34.0249C101.818 33.107 104.196 31.2713 105.622 30.3534C107.524 28.9766 107.524 28.0587 107.524 26.223Z" fill="#E0D8C8"></path></svg>